# xmcd
#
# Track frame offsets:
#	150
#	17989
#	28191
#	38547
#	50552
#	59592
#	69835
#	81558
#	91006
#	104001
#	118038
#	126428
#	138147
#	148668
#	161087
#	179927
#	190486
#	204798
#	220007
#	228811
#	237485
#
# Disc length: 3387 seconds
#
# Revision: 1
# Processed by: cddbd v1.5.2PL0 Copyright (c) Steve Scherf et al.
# Submitted via: EasyCDDAExtractor 12.0.1.1
#
DISCID=370d3915
DTITLE=Various Artist - The Ultimate Ballroom Album 11 CD1
DYEAR=2008
DGENRE=Dance
TTITLE0=B. Darin and J. Mercer - SF 29 - Two Of A Kind
TTITLE1=Perry Como - SF 29 - Dream On Little Dreamer
TTITLE2=Vic Damone - SF 29 - Close Your Eyes
TTITLE3=Dinah Shore - SF 29 - It All Depends On You
TTITLE4=Vic Damone - SF 29 - The More I See You
TTITLE5=Julie London - SF 29 - Every Chance I Get
TTITLE6=George Benson - SF 29 - I Only Have Eyes For You
TTITLE7=Wayne Newton - SF 29 - Michelle
TTITLE8=Nat King Cole - SF 29 - Let There Be Love
TTITLE9=Sammy Davis Jr. - SF 29 - This Guy's In Love With You
TTITLE10=Mel Torme - SF 29 - The King
TTITLE11=Buddy Rich Orch. - QS 50 - Big Swing Face
TTITLE12=Andy Williams - QS 50 - Falling In Love With Love
TTITLE13=Sammy Davis Jr - QS 49 - A Lot Of Livin' To Do
TTITLE14=Buddy Rich Orch. - QS 50 - Love For Sale
TTITLE15=Sammy Davis Jr - QS 50 - If My Friends Could See Me Now
TTITLE16=Mel Torme - QS 50 - Swingin' On The Moon
TTITLE17=Les Brown Orch. - QS 50 - Gentle On My Mind
TTITLE18=Bobby Darin - QS 50 - Long Ago and Far Away
TTITLE19=Wayne Newton - QS 50 - Mack The Knife
TTITLE20=George Benson - QS 50 - Ready Now That You Are
EXTD=YEAR: 2008
EXTT0=
EXTT1=
EXTT2=
EXTT3=
EXTT4=
EXTT5=
EXTT6=
EXTT7=
EXTT8=
EXTT9=
EXTT10=
EXTT11=
EXTT12=
EXTT13=
EXTT14=
EXTT15=
EXTT16=
EXTT17=
EXTT18=
EXTT19=
EXTT20=
PLAYORDER=
